<?xml version="1.0" encoding="UTF-8"?>
<svg id="Layer_2" data-name="Layer 2" xmlns="http://www.w3.org/2000/svg" xmlns:xlink="http://www.w3.org/1999/xlink" viewBox="0 0 197.46 57.04">
  <defs>
    <style>
      .cls-1 {
        fill: none;
      }

      .cls-2 {
        clip-path: url(#clippath);
      }

      .cls-3 {
        fill: #007298;
      }

      .cls-4 {
        fill: #fff;
      }

      .cls-5 {
        fill: #f2a96e;
      }

      .cls-6 {
        fill: #f2dab1;
      }

      .cls-7 {
        fill: #90aba0;
      }

      .cls-8 {
        fill: #e1402c;
      }
    </style>
    <clipPath id="clippath">
      <path class="cls-1" d="M31.31,0h-12.49S-5.77,45.29,1.26,57.04l13.64-4.62c2.49-2.66,5.98-4.35,9.86-4.45,.27-6.07-.48-11.65-.73-14.77-.08-.97,.46-1.41,1.04-1.41s1.12,.44,1.04,1.41c-.28,3.12-1.04,8.7-.77,14.76,4,.05,7.59,1.78,10.12,4.53l13.4,4.55C55.9,45.29,31.31,0,31.31,0Zm-1.2,30.47l-.2,1.15c-.89-.38-2.15-.66-3.58-.76l-.27,.51h-1.99l-.27-.51c-1.41,.11-2.64,.38-3.52,.76l-.25-1.11c-.09-.4-.02-.81,.18-1.16l1.75-2.98c-.04-.23-.08-.44-.11-.65-.34-2.18-.79-5.47,.43-9.22,1.07-3.31,2.85-4.87,2.85-4.87h.03s4.95,4.92,2.91,14.76l1.82,2.96c.2,.33,.28,.73,.21,1.11Z"/>
    </clipPath>
  </defs>
  <g id="Layer_1-2" data-name="Layer 1">
    <g>
      <g class="cls-2">
        <g>
          <rect class="cls-8" x="-5.56" width="71.25" height="11.5"/>
          <rect class="cls-5" x="-5.56" y="11.5" width="71.25" height="11.5"/>
          <rect class="cls-6" x="-5.56" y="23.01" width="71.25" height="11.5"/>
          <rect class="cls-7" x="-5.56" y="34.51" width="71.25" height="11.5"/>
          <rect class="cls-3" x="-5.56" y="46.02" width="71.25" height="11.5"/>
        </g>
      </g>
      <g>
        <path class="cls-4" d="M96.38,23.72h2.33v8.66c0,1.04-.11,2.04-.34,2.99-.23,.97-.63,1.83-1.17,2.58-.55,.75-1.28,1.36-2.17,1.81-.89,.45-1.98,.67-3.26,.67s-2.37-.23-3.26-.67c-.89-.45-1.62-1.06-2.17-1.81-.12-.17-.24-.35-.35-.53-.11,.18-.22,.36-.35,.53-.55,.75-1.28,1.36-2.17,1.81-.89,.45-1.98,.67-3.26,.67s-2.37-.23-3.26-.67c-.89-.45-1.62-1.06-2.17-1.81-.55-.74-.94-1.61-1.17-2.58-.23-.95-.34-1.95-.34-2.99v-8.66h2.33v8.21c0,.65,.06,1.36,.18,2.11,.11,.72,.34,1.41,.67,2.03,.32,.61,.79,1.11,1.38,1.51,.59,.39,1.39,.59,2.38,.59s1.79-.2,2.38-.59c.59-.39,1.06-.9,1.38-1.51,.33-.62,.56-1.3,.67-2.03,.11-.69,.16-1.35,.17-1.97v-8.35h2.34v8.35c0,.62,.06,1.28,.17,1.97,.11,.72,.34,1.41,.67,2.03,.32,.61,.79,1.11,1.38,1.51,.59,.39,1.39,.59,2.38,.59s1.79-.2,2.38-.59c.59-.39,1.06-.9,1.38-1.51,.33-.62,.56-1.3,.67-2.03,.12-.74,.18-1.45,.18-2.11v-8.21Z"/>
        <path class="cls-4" d="M117.38,28.27c.32,.9,.49,1.83,.49,2.76v1.62h-13.23c.02,.39,.1,.86,.24,1.42,.16,.64,.47,1.28,.91,1.9,.44,.61,1.03,1.14,1.77,1.58,.73,.43,1.69,.66,2.85,.66,1.01,0,2-.25,2.95-.73,.94-.48,1.67-1.15,2.17-1.98l.12-.19,1.8,1.52-.09,.14c-.81,1.23-1.83,2.13-3.03,2.66-1.19,.53-2.52,.8-3.95,.8-1.22,0-2.35-.21-3.35-.63-1-.42-1.87-1.01-2.59-1.77s-1.28-1.66-1.66-2.69c-.38-1.03-.58-2.18-.58-3.43s.2-2.33,.59-3.34c.39-1.02,.96-1.92,1.68-2.67,.72-.75,1.58-1.35,2.55-1.78,.98-.43,2.07-.65,3.25-.65s2.33,.22,3.27,.65c.94,.43,1.74,1.01,2.38,1.72,.64,.71,1.13,1.53,1.45,2.43Zm-1.94,2.16c-.02-.6-.16-1.18-.4-1.71-.27-.59-.65-1.12-1.12-1.56-.47-.45-1.04-.81-1.68-1.07-.65-.26-1.34-.39-2.06-.39-1.07,0-1.97,.22-2.68,.65-.71,.44-1.29,.95-1.7,1.52-.42,.57-.72,1.14-.89,1.67-.14,.44-.21,.72-.24,.89h10.78Z"/>
        <path class="cls-4" d="M130.64,33.04c.4,.57,.61,1.35,.61,2.34,0,.78-.15,1.49-.45,2.12-.3,.63-.71,1.17-1.21,1.6-.5,.43-1.11,.76-1.8,.99-.68,.23-1.42,.34-2.2,.34-1.03,0-2.02-.18-2.94-.55-.93-.37-1.69-.94-2.24-1.71l-.08-.11,2-1.72,.09,.14c.37,.56,.85,.97,1.43,1.24,.9,.41,1.86,.54,2.86,.24,.36-.11,.68-.27,.97-.48,.29-.21,.53-.48,.71-.78,.18-.3,.27-.66,.27-1.07,0-.57-.17-.99-.53-1.29-.37-.31-.85-.57-1.4-.78-.58-.22-1.2-.43-1.87-.62-.69-.2-1.33-.49-1.92-.86-.59-.37-1.09-.87-1.49-1.49-.4-.63-.61-1.48-.61-2.53,0-.48,.11-.99,.31-1.53,.21-.54,.54-1.04,.99-1.48,.45-.45,1.02-.82,1.71-1.12,.69-.3,1.54-.45,2.51-.45,.88,0,1.73,.12,2.53,.36,.82,.25,1.54,.75,2.15,1.5l.09,.11-1.98,1.8-.09-.15c-.25-.39-.62-.72-1.09-.96-.47-.24-1.01-.36-1.61-.36s-1.06,.07-1.44,.22c-.38,.15-.68,.34-.9,.57-.22,.23-.38,.48-.47,.74-.09,.27-.14,.51-.14,.74,0,.63,.18,1.11,.53,1.44,.37,.34,.84,.63,1.4,.84,.56,.22,1.19,.42,1.87,.6,.69,.18,1.33,.44,1.92,.76,.59,.33,1.09,.78,1.49,1.34Z"/>
        <path class="cls-4" d="M150.55,31.95c0,4.68-3.8,8.48-8.48,8.48s-8.48-3.8-8.48-8.48,3.8-8.48,8.48-8.48,8.48,3.8,8.48,8.48Zm-2.25,0c0-3.43-2.79-6.22-6.23-6.22s-6.23,2.79-6.23,6.22,2.79,6.23,6.23,6.23,6.23-2.79,6.23-6.23Z"/>
        <path class="cls-4" d="M155.33,40.19h-2.43v-8.66c0-1.04,.12-2.04,.36-2.99,.24-.97,.65-1.83,1.22-2.58,.57-.75,1.33-1.36,2.25-1.81,.92-.45,2.06-.67,3.39-.67s2.47,.23,3.39,.67c.92,.45,1.68,1.06,2.25,1.81,.13,.17,.25,.35,.36,.53,.11-.18,.23-.36,.36-.53,.57-.75,1.33-1.36,2.25-1.81,.92-.45,2.06-.67,3.39-.67s2.47,.23,3.39,.67c.92,.45,1.68,1.06,2.25,1.81,.57,.74,.98,1.61,1.22,2.58,.24,.95,.36,1.95,.36,2.99v8.66h-2.43v-8.21c0-.65-.06-1.36-.18-2.11-.12-.72-.35-1.41-.7-2.03-.34-.61-.82-1.11-1.44-1.51-.61-.39-1.44-.59-2.48-.59s-1.87,.2-2.48,.59c-.62,.39-1.1,.9-1.44,1.51-.35,.62-.58,1.3-.7,2.03-.11,.69-.17,1.35-.18,1.97v8.35h-2.43v-8.35c0-.62-.06-1.28-.18-1.97-.12-.72-.35-1.41-.7-2.03-.34-.61-.82-1.11-1.44-1.51-.61-.39-1.44-.59-2.48-.59s-1.87,.2-2.48,.59c-.62,.39-1.1,.9-1.44,1.51-.34,.62-.58,1.3-.7,2.03-.12,.74-.18,1.45-.18,2.11v8.21Z"/>
        <path class="cls-4" d="M196.97,28.27c.32,.9,.49,1.83,.49,2.76v1.62h-13.23c.02,.39,.1,.86,.24,1.42,.16,.64,.47,1.28,.91,1.9,.44,.61,1.03,1.14,1.77,1.58,.73,.43,1.69,.66,2.85,.66,1.01,0,2-.25,2.95-.73,.94-.48,1.67-1.15,2.18-1.98l.12-.19,1.8,1.52-.09,.14c-.81,1.23-1.83,2.13-3.03,2.66-1.19,.53-2.52,.8-3.95,.8-1.23,0-2.35-.21-3.35-.63-1-.42-1.87-1.01-2.59-1.77s-1.28-1.66-1.66-2.69c-.38-1.03-.57-2.18-.57-3.43s.2-2.33,.59-3.34c.39-1.02,.96-1.92,1.68-2.67,.72-.75,1.58-1.35,2.55-1.78,.98-.43,2.07-.65,3.25-.65s2.33,.22,3.27,.65c.94,.43,1.74,1.01,2.38,1.72,.64,.71,1.13,1.53,1.45,2.43Zm-1.94,2.16c-.02-.6-.16-1.18-.4-1.71-.27-.59-.65-1.12-1.12-1.56-.47-.45-1.03-.81-1.68-1.07-.65-.26-1.34-.39-2.06-.39-1.07,0-1.97,.22-2.68,.65-.71,.44-1.29,.95-1.7,1.52-.42,.57-.72,1.14-.89,1.67-.15,.44-.21,.72-.24,.89h10.78Z"/>
        <path class="cls-4" d="M55.98,35.63c-.32-.9-.49-1.83-.49-2.76v-1.62h13.23c-.02-.39-.1-.86-.24-1.42-.16-.64-.47-1.28-.91-1.9-.44-.61-1.03-1.14-1.77-1.58-.73-.43-1.69-.66-2.85-.66-1.01,0-2,.25-2.95,.73-.94,.48-1.67,1.15-2.18,1.98l-.12,.19-1.8-1.52,.09-.14c.81-1.23,1.83-2.13,3.03-2.66,1.19-.53,2.52-.8,3.95-.8,1.23,0,2.35,.21,3.35,.63,1,.42,1.87,1.01,2.59,1.77s1.28,1.66,1.66,2.69c.38,1.03,.57,2.18,.57,3.43s-.2,2.33-.59,3.34c-.39,1.02-.96,1.92-1.68,2.67-.72,.75-1.58,1.35-2.55,1.78-.98,.43-2.07,.65-3.25,.65s-2.33-.22-3.27-.65c-.94-.43-1.74-1.01-2.38-1.72-.64-.71-1.13-1.53-1.45-2.43Zm1.94-2.16c.02,.6,.16,1.18,.4,1.71,.27,.59,.65,1.12,1.12,1.56,.47,.45,1.03,.81,1.68,1.07,.65,.26,1.34,.39,2.06,.39,1.07,0,1.97-.22,2.68-.65,.71-.44,1.29-.95,1.7-1.52,.42-.57,.72-1.14,.89-1.67,.15-.44,.21-.72,.24-.89h-10.78Z"/>
      </g>
      <g>
        <path class="cls-4" d="M29.93,29.56l-1.83-2.98c2.05-9.91-2.93-14.86-2.93-14.86h-.03s-1.79,1.58-2.86,4.91c-1.22,3.78-.78,7.08-.43,9.28,.03,.21,.07,.42,.11,.65l-1.76,3c-.21,.35-.27,.77-.18,1.17l.25,1.12c.89-.38,2.13-.66,3.55-.77l.27,.51h2l.27-.52c1.44,.1,2.7,.38,3.6,.76l.2-1.15c.07-.39-.01-.78-.22-1.12Z"/>
        <path class="cls-4" d="M25.16,48.29c.06,0,.12,0,.19,0-.27-6.05,.49-11.55,.77-14.63,.09-.97-.47-1.4-1.04-1.4s-1.12,.44-1.04,1.4c.25,3.08,1.01,8.59,.76,14.64,.12,0,.25,0,.37,0Z"/>
      </g>
    </g>
  </g>
</svg>